# File created by Blade
# Date/Time:  Tue Jan 27 17:01:45 2015
#---------------------------------------------------------
:version 1.10
:name HOM
:units
  mass 1.0
  length 1.000000
  angle deg
:documentation
     Acclaim Skeleton File
:root
   axis xyz
   order TX TY TZ RX RY RZ
   position 0.000000 0.000000 0.000000
   orientation 0 0 0
:bonedata
   begin
      id 1
      name Spine_dum
      direction 0.000000 1.000000 0.000000
      length 7.539951
      axis 0.0 0.0 0.0 xyz
   end
   begin
      id 2
      name LeftUpLeg_dum
      direction 1.000000 0.000000 0.000000
      length 3.345476
      axis 0.0 0.0 0.0 xyz
   end
   begin
      id 3
      name RightUpLeg_dum
      direction -1.000000 0.000000 0.000000
      length 3.345476
      axis 0.0 0.0 0.0 xyz
   end
   begin
      id 4
      name Spine
      direction 0.000000 1.000000 0.000000
      length 0.000000
      axis 0.0 0.0 0.0 xyz
      dof rx ry rz
   end
   begin
      id 5
      name Spine_dum1
      direction 0.000000 1.000000 0.000000
      length 15.093809
      axis 0.0 0.0 0.0 xyz
   end
   begin
      id 6
      name Spine_dum2
      direction 0.000000 1.000000 0.000000
      length 9.738928
      axis 0.0 0.0 0.0 xyz
   end
   begin
      id 7
      name Spine_dum3
      direction 0.000000 1.000000 0.000000
      length 9.738928
      axis 0.0 0.0 0.0 xyz
   end
   begin
      id 8
      name Head
      direction 0.000000 1.000000 0.000000
      length 4.527550
      axis 0.0 0.0 0.0 xyz
      dof rx ry rz
   end
   begin
      id 9
      name LeftShoulder
      direction 1.000000 0.000000 0.000000
      length 7.084015
      axis 0.0 0.0 -90.0 xyz
      dof rx ry rz
   end
   begin
      id 10
      name LeftArm
      direction 1.000000 0.000000 0.000000
      length 10.259319
      axis 0.0 0.0 -90.0 xyz
      dof rx ry rz
   end
   begin
      id 11
      name LeftForeArm
      direction 1.000000 0.000000 0.000000
      length 9.896984
      axis 0.0 0.0 -90.0 xyz
      dof ry rz rx
   end
   begin
      id 12
      name LeftHand
      direction 0.000000 0.000000 0.000000
      length 0.000000
      axis 0.0 0.0 -90.0 xyz
      dof rx ry rz
   end
   begin
      id 13
      name LeftHand_dum1
      direction 0.000000 0.000000 0.000000
      length 0.000000
      axis 0.0 0.0 -90.0 xyz
   end
   begin
      id 14
      name LeftHand_dum2
      direction 1.000000 0.000000 0.000000
      length 3.937000
      axis 0.0 0.0 -90.0 xyz
   end
   begin
      id 15
      name LeftHandThumb1
      direction 0.000000 0.000000 1.000000
      length 3.937000
      axis 0.0 0.0 -90.0 xyz
      dof rx rz ry
   end
   begin
      id 16
      name RightShoulder
      direction -1.000000 0.000000 0.000000
      length 7.084015
      axis 0.0 0.0 90.0 xyz
      dof rx ry rz
   end
   begin
      id 17
      name RightArm
      direction -1.000000 0.000000 0.000000
      length 10.259319
      axis 0.0 0.0 90.0 xyz
      dof rx ry rz
   end
   begin
      id 18
      name RightForeArm
      direction -1.000000 0.000000 0.000000
      length 9.896984
      axis 0.0 0.0 90.0 xyz
      dof ry rz rx
   end
   begin
      id 19
      name RightHand
      direction 0.000000 0.000000 0.000000
      length 0.000000
      axis 0.0 0.0 90.0 xyz
      dof rx ry rz
   end
   begin
      id 20
      name RightHand_dum1
      direction 0.000000 0.000000 0.000000
      length 0.000000
      axis 0.0 0.0 90.0 xyz
   end
   begin
      id 21
      name RightHand_dum2
      direction -1.000000 0.000000 0.000000
      length 3.937000
      axis 0.0 0.0 90.0 xyz
   end
   begin
      id 22
      name RightHandThumb1
      direction 0.000000 0.000000 1.000000
      length 3.937000
      axis 0.0 0.0 90.0 xyz
      dof rx rz ry
   end
   begin
      id 23
      name LeftUpLeg
      direction 0.000000 -1.000000 0.000000
      length 19.114733
      axis 0.0 0.0 0.0 xyz
      dof rx ry rz
   end
   begin
      id 24
      name LeftLeg
      direction 0.000000 -1.000000 0.000000
      length 16.045604
      axis 0.0 0.0 0.0 xyz
      dof rx ry rz
   end
   begin
      id 25
      name LeftFoot
      direction 0.000000 -0.258819 0.965926
      length 5.543155
      axis 15.0 0.0 0.0 xyz
      dof rx ry rz
   end
   begin
      id 26
      name LeftToeBase
      direction 0.000000 0.000000 1.000000
      length 2.952750
      axis 0.0 0.0 0.0 xyz
      dof rx ry rz
   end
   begin
      id 27
      name RightUpLeg
      direction 0.000000 -1.000000 0.000000
      length 19.114733
      axis 0.0 0.0 0.0 xyz
      dof rx ry rz
   end
   begin
      id 28
      name RightLeg
      direction 0.000000 -1.000000 0.000000
      length 16.045604
      axis 0.0 0.0 0.0 xyz
      dof rx ry rz
   end
   begin
      id 29
      name RightFoot
      direction 0.000000 -0.258819 0.965926
      length 5.543155
      axis 15.0 0.0 0.0 xyz
      dof rx ry rz
   end
   begin
      id 30
      name RightToeBase
      direction 0.000000 0.000000 1.000000
      length 2.952750
      axis 0.0 0.0 0.0 xyz
      dof rx ry rz
   end
:hierarchy
   begin
      root Spine_dum LeftUpLeg_dum RightUpLeg_dum
      Spine_dum Spine
      LeftUpLeg_dum LeftUpLeg
      RightUpLeg_dum RightUpLeg
      Spine Spine_dum1 Spine_dum2 Spine_dum3
      Spine_dum1 Head
      Spine_dum2 LeftShoulder
      Spine_dum3 RightShoulder
      LeftShoulder LeftArm
      LeftArm LeftForeArm
      LeftForeArm LeftHand
      LeftHand LeftHand_dum1 LeftHand_dum2
      LeftHand_dum1 LeftHandThumb1
      RightShoulder RightArm
      RightArm RightForeArm
      RightForeArm RightHand
      RightHand RightHand_dum1 RightHand_dum2
      RightHand_dum1 RightHandThumb1
      LeftUpLeg LeftLeg
      LeftLeg LeftFoot
      LeftFoot LeftToeBase
      RightUpLeg RightLeg
      RightLeg RightFoot
      RightFoot RightToeBase
   end

# File created by Blade
# Date/Time:  Tue Jan 27 17:01:38 2015
# Frame Rate: 120.000 fps
#------------------------------------------------------
:FULLY-SPECIFIED
:DEGREES
121
root -0.828524 36.827341 5.798801 3.536594 1.055977 -0.825957
Spine -1.906786 6.431896 -2.377143
Head -0.663159 1.745323 3.303358
LeftShoulder -4.130858 1.297259 1.306364
LeftArm -3.776699 25.374932 -77.395314
LeftForeArm -67.446883 0.000000 58.388031
LeftHand -1.684734 -0.000000 -26.538794
LeftHandThumb1 -26.253704 0.000000 33.147579
RightShoulder -5.227307 -23.949020 1.621471
RightArm 27.217061 -35.858684 53.560299
RightForeArm -146.656483 -0.000000 41.496839
RightHand -1.245576 -0.000000 -4.053207
RightHandThumb1 -24.326973 -0.000000 -32.862282
LeftUpLeg -0.146012 11.824131 5.516455
LeftLeg 7.574712 -0.000000 -0.000000
LeftFoot -17.586515 3.215045 -21.043400
LeftToeBase 14.836526 -0.000000 -0.000000
RightUpLeg -2.139926 -8.737144 -1.628169
RightLeg 10.805013 -0.000000 -0.000000
RightFoot -17.220935 -5.092513 14.651469
RightToeBase 10.728168 -0.000000 -0.000000
122
root -0.827629 36.827391 5.799994 3.466738 1.095621 -0.849571
Spine -1.787401 6.413954 -2.307217
Head -0.700254 1.706287 3.246636
LeftShoulder -4.010019 1.135621 1.345369
LeftArm -3.631784 25.698126 -77.232710
LeftForeArm -67.202654 -0.000000 58.409952
LeftHand -1.450071 0.000000 -26.652216
LeftHandThumb1 -26.253704 0.000000 33.147579
RightShoulder -5.134131 -24.019846 1.619718
RightArm 27.517517 -36.040563 53.012719
RightForeArm -146.906219 -0.000000 41.672434
RightHand -1.343022 0.000000 -4.696789
RightHandThumb1 -24.326973 -0.000000 -32.862282
LeftUpLeg -0.094936 11.710459 5.546317
LeftLeg 7.603270 -0.000000 -0.000000
LeftFoot -17.640191 3.296764 -21.022637
LeftToeBase 14.832606 -0.000000 -0.000000
RightUpLeg -2.053808 -8.878139 -1.619432
RightLeg 10.776549 -0.000000 -0.000000
RightFoot -17.174190 -4.973061 14.621878
RightToeBase 10.761653 -0.000000 -0.000000
123
root -0.834996 36.828054 5.795217 3.432008 1.010949 -0.890899
Spine -1.704850 6.514412 -2.258881
Head -0.732481 1.670582 3.235453
LeftShoulder -3.926660 0.950228 1.391174
LeftArm -3.472220 25.982934 -77.050857
LeftForeArm -66.997341 -0.000000 58.422894
LeftHand -1.287620 0.000000 -26.808122
LeftHandThumb1 -26.253704 0.000000 33.147579
RightShoulder -5.020836 -24.047001 1.616117
RightArm 27.732586 -36.149096 52.529876
RightForeArm -147.340413 -0.000000 41.908218
RightHand -1.422867 -0.000000 -4.960253
RightHandThumb1 -24.326973 -0.000000 -32.862282
LeftUpLeg -0.069884 11.765001 5.602459
LeftLeg 7.643929 -0.000000 -0.000000
LeftFoot -17.673271 3.309615 -21.039450
LeftToeBase 14.848418 -0.000000 -0.000000
RightUpLeg -2.045292 -8.807198 -1.578075
RightLeg 10.793166 -0.000000 -0.000000
RightFoot -17.138325 -4.991306 14.611084
RightToeBase 10.698693 -0.000000 -0.000000
124
root -0.832212 36.830247 5.740718 3.955510 1.752648 -0.933755
Spine -2.243887 5.747800 -2.128477
Head -0.654754 1.662529 3.109905
LeftShoulder -3.919984 0.899292 1.353487
LeftArm -3.287766 26.220696 -76.858260
LeftForeArm -66.796313 0.000000 58.449441
LeftHand -1.098525 -0.000000 -26.945246
LeftHandThumb1 -26.253704 0.000000 33.147579
RightShoulder -4.970939 -24.141470 1.529219
RightArm 27.936124 -36.271041 52.039793
RightForeArm -147.852994 -0.000000 42.168783
RightHand -1.414019 -0.000000 -5.010908
RightHandThumb1 -24.326973 -0.000000 -32.862282
LeftUpLeg -0.996922 10.836914 5.518866
LeftLeg 7.998018 -0.000000 -0.000000
LeftFoot -17.847881 3.531167 -21.098471
LeftToeBase 14.867623 -0.000000 -0.000000
RightUpLeg -2.580681 -9.645269 -1.414140
RightLeg 10.797130 -0.000000 -0.000000
RightFoot -17.059533 -4.864205 14.599239
RightToeBase 10.756693 -0.000000 -0.000000
125
root -0.828332 36.831863 5.724182 4.093253 1.948224 -0.924751
Spine -2.371796 5.532751 -2.097807
Head -0.615163 1.660266 3.087098
LeftShoulder -3.877679 0.802236 1.329886
LeftArm -3.094203 26.389775 -76.651090
LeftForeArm -66.915594 -0.000000 58.452138
LeftHand -0.758897 -0.000000 -27.509231
LeftHandThumb1 -26.253704 0.000000 33.147579
RightShoulder -4.900786 -24.191199 1.491120
RightArm 28.125313 -36.361842 51.532608
RightForeArm -148.325350 -0.000000 42.444337
RightHand -1.384016 -0.000000 -4.923160
RightHandThumb1 -24.326973 -0.000000 -32.862282
LeftUpLeg -1.250943 10.529705 5.470159
LeftLeg 8.104344 -0.000000 -0.000000
LeftFoot -17.900075 3.657893 -21.118570
LeftToeBase 14.871843 -0.000000 -0.000000
RightUpLeg -2.709928 -9.941259 -1.400153
RightLeg 10.769890 -0.000000 -0.000000
RightFoot -17.005422 -4.804649 14.590139
RightToeBase 10.677239 -0.000000 -0.000000
126
root -0.832715 36.832627 5.723149 4.099609 1.737896 -0.951566
Spine -2.377139 5.695418 -2.081057
Head -0.579851 1.696224 3.110163
LeftShoulder -3.860784 0.690284 1.332669
LeftArm -2.949966 26.408011 -76.463300
LeftForeArm -66.876822 0.000000 58.455939
LeftHand -0.480041 -0.000000 -27.860521
LeftHandThumb1 -26.253704 0.000000 33.147579
RightShoulder -4.807444 -24.204511 1.438998
RightArm 28.272518 -36.425445 51.131707
RightForeArm -148.599171 -0.000000 42.671381
RightHand -1.361358 -0.000000 -4.708600
RightHandThumb1 -24.326973 -0.000000 -32.862282
LeftUpLeg -1.213882 10.714976 5.494107
LeftLeg 8.092039 -0.000000 -0.000000
LeftFoot -17.912699 3.656799 -21.152659
LeftToeBase 14.898376 -0.000000 -0.000000
RightUpLeg -2.732355 -9.744178 -1.380181
RightLeg 10.742117 -0.000000 -0.000000
RightFoot -16.970750 -4.769751 14.625456
RightToeBase 10.665045 -0.000000 -0.000000
127
root -0.833191 36.832576 5.720827 4.104415 1.603655 -0.968388
Spine -2.370551 5.773830 -2.050607
Head -0.553223 1.720431 3.113447
LeftShoulder -3.844967 0.587067 1.298517
LeftArm -2.837786 26.374347 -76.298147
LeftForeArm -66.981158 0.000000 58.519526
LeftHand -0.330683 -0.000000 -27.965041
LeftHandThumb1 -26.253704 0.000000 33.147579
RightShoulder -4.726506 -24.209132 1.368899
RightArm 28.447610 -36.536630 50.671078
RightForeArm -148.501641 -0.000000 42.869125
RightHand -1.333737 -0.000000 -4.421249
RightHandThumb1 -24.326973 -0.000000 -32.862282
LeftUpLeg -1.195924 10.816479 5.504297
LeftLeg 8.090957 -0.000000 -0.000000
LeftFoot -17.932957 3.684130 -21.158109
LeftToeBase 14.872816 -0.000000 -0.000000
RightUpLeg -2.755964 -9.651826 -1.369964
RightLeg 10.738033 -0.000000 -0.000000
RightFoot -16.940704 -4.755447 14.593947
RightToeBase 10.672671 -0.000000 -0.000000
